<svg width="28" height="28" viewBox="0 0 28 28" fill="none" xmlns="http://www.w3.org/2000/svg">
<path opacity="0.12" d="M22.1668 20.0667V7H5.8335V20.0667C5.8335 22.0269 5.8335 23.0069 6.21497 23.7556C6.55053 24.4142 7.08596 24.9496 7.74453 25.2852C8.49322 25.6667 9.47331 25.6667 11.4335 25.6667H16.5668C18.527 25.6667 19.5071 25.6667 20.2558 25.2852C20.9144 24.9496 21.4498 24.4142 21.7854 23.7556C22.1668 23.0069 22.1668 22.0269 22.1668 20.0667Z" fill="#FF7C7C"/>
<path d="M18.6667 6.99998V6.06665C18.6667 4.75986 18.6667 4.10646 18.4123 3.60734C18.1886 3.16829 17.8317 2.81134 17.3926 2.58763C16.8935 2.33331 16.2401 2.33331 14.9333 2.33331H13.0667C11.7599 2.33331 11.1065 2.33331 10.6074 2.58763C10.1683 2.81134 9.81136 3.16829 9.58765 3.60734C9.33333 4.10646 9.33333 4.75986 9.33333 6.06665V6.99998M11.6667 13.4166V19.25M16.3333 13.4166V19.25M3.5 6.99998H24.5M22.1667 6.99998V20.0666C22.1667 22.0268 22.1667 23.0069 21.7852 23.7556C21.4496 24.4142 20.9142 24.9496 20.2556 25.2852C19.5069 25.6666 18.5269 25.6666 16.5667 25.6666H11.4333C9.47315 25.6666 8.49306 25.6666 7.74437 25.2852C7.0858 24.9496 6.55037 24.4142 6.21481 23.7556C5.83333 23.0069 5.83333 22.0268 5.83333 20.0666V6.99998" stroke="#FF7C7C" stroke-width="2" stroke-linecap="round" stroke-linejoin="round"/>
</svg>
