<svg width="28" height="28" viewBox="0 0 28 28" fill="none" xmlns="http://www.w3.org/2000/svg">
<path d="M13.9998 9.33345L4.6665 18.6668V23.3334L9.33317 23.3334L18.6665 14.0001M13.9998 9.33345L17.3466 5.98669L17.3486 5.9847C17.8093 5.524 18.04 5.29325 18.306 5.20682C18.5404 5.13069 18.7928 5.13069 19.0271 5.20682C19.2929 5.29319 19.5234 5.52368 19.9834 5.98373L22.0132 8.01349C22.4752 8.47551 22.7063 8.70662 22.7929 8.97301C22.869 9.20732 22.869 9.45973 22.7929 9.69404C22.7064 9.96024 22.4756 10.191 22.0143 10.6524L22.0132 10.6534L18.6665 14.0001M13.9998 9.33345L18.6665 14.0001" stroke="#A1A3A3" stroke-width="2" stroke-linecap="round" stroke-linejoin="round"/>
</svg>
