<svg width="25" height="24" viewBox="0 0 25 24" fill="none" xmlns="http://www.w3.org/2000/svg">
<path fill-rule="evenodd" clip-rule="evenodd" d="M2.93408 21.6515L4.28108 16.734C3.45008 15.295 3.01308 13.662 3.01358 11.9895C3.01608 6.757 7.27408 2.5 12.5071 2.5C15.0466 2.501 17.4296 3.4895 19.2221 5.283C21.0141 7.077 22.0011 9.461 22.0001 11.997C21.9981 17.2295 17.7391 21.487 12.5071 21.487H12.5031C10.9146 21.4865 9.35308 21.088 7.96658 20.3315L2.93408 21.6515Z" fill="white"/>
<path fill-rule="evenodd" clip-rule="evenodd" d="M2.93386 21.9015C2.86786 21.9015 2.80386 21.8755 2.75636 21.8275C2.69386 21.764 2.66936 21.6715 2.69286 21.586L4.01236 16.768C3.19436 15.315 2.76286 13.665 2.76386 11.99C2.76586 6.619 7.13636 2.25 12.5069 2.25C15.1119 2.251 17.5594 3.2655 19.3989 5.1065C21.2384 6.948 22.2509 9.395 22.2499 11.997C22.2479 17.3675 17.8769 21.737 12.5069 21.737C10.9124 21.7365 9.33486 21.343 7.93486 20.5985L2.99736 21.893C2.97636 21.899 2.95536 21.9015 2.93386 21.9015Z" fill="white"/>
<path fill-rule="evenodd" clip-rule="evenodd" d="M12.5068 2.5C15.0463 2.501 17.4293 3.4895 19.2218 5.283C21.0138 7.077 22.0008 9.461 21.9998 11.997C21.9978 17.2295 17.7388 21.487 12.5068 21.487H12.5028C10.9143 21.4865 9.3528 21.088 7.9663 20.3315L2.9338 21.6515L4.2808 16.734C3.4498 15.295 3.0128 13.662 3.0133 11.9895C3.0158 6.757 7.2738 2.5 12.5068 2.5ZM12.5068 2C6.9988 2 2.5158 6.481 2.5133 11.9895C2.5128 13.673 2.9378 15.332 3.7438 16.8005L2.4513 21.52C2.4043 21.6925 2.4523 21.8765 2.5783 22.0035C2.6733 22.0995 2.8018 22.152 2.9338 22.152C2.9763 22.152 3.0188 22.1465 3.0608 22.1355L7.9043 20.8655C9.3183 21.5995 10.9033 21.987 12.5028 21.9875C18.0148 21.9875 22.4978 17.506 22.5003 11.9975C22.5013 9.328 21.4628 6.818 19.5763 4.93C17.6888 3.0415 15.1783 2.001 12.5068 2Z" fill="#CFD8DC"/>
<path fill-rule="evenodd" clip-rule="evenodd" d="M18.0882 6.41603C16.5982 4.92503 14.6177 4.10353 12.5097 4.10303C8.15771 4.10303 4.61821 7.64103 4.61621 11.99C4.61571 13.4805 5.03271 14.9315 5.82271 16.188L6.01071 16.4865L5.21321 19.397L8.19971 18.614L8.48821 18.785C9.69921 19.504 11.0882 19.884 12.5042 19.8845H12.5072C16.8562 19.8845 20.3957 16.346 20.3972 11.9965C20.3977 9.88903 19.5782 7.90703 18.0882 6.41603Z" fill="#40C351"/>
<path fill-rule="evenodd" clip-rule="evenodd" d="M10.1341 8.0225C9.95662 7.6275 9.76962 7.61951 9.60012 7.61251C9.46162 7.60651 9.30362 7.607 9.14562 7.607C8.98762 7.607 8.73062 7.6665 8.51312 7.904C8.29562 8.1415 7.68262 8.715 7.68262 9.882C7.68262 11.049 8.53262 12.177 8.65112 12.335C8.76962 12.493 10.2921 14.9645 12.7031 15.9155C14.7066 16.7055 15.1146 16.5485 15.5496 16.509C15.9846 16.4695 16.9531 15.9355 17.1506 15.3815C17.3481 14.8275 17.3481 14.353 17.2891 14.254C17.2296 14.155 17.0716 14.096 16.8346 13.977C16.5976 13.858 15.4311 13.2845 15.2136 13.2055C14.9961 13.1265 14.8381 13.087 14.6796 13.3245C14.5216 13.5615 14.0671 14.096 13.9286 14.254C13.7901 14.4125 13.6516 14.4325 13.4146 14.3135C13.1776 14.1945 12.4136 13.9445 11.5071 13.1365C10.8021 12.508 10.3261 11.7315 10.1876 11.494C10.0491 11.257 10.1726 11.1285 10.2916 11.01C10.3981 10.9035 10.5286 10.733 10.6476 10.5945C10.7661 10.456 10.8056 10.357 10.8846 10.199C10.9636 10.0405 10.9241 9.902 10.8646 9.7835C10.8061 9.6645 10.3451 8.49151 10.1341 8.0225Z" fill="white"/>
</svg>
